#!OML:ASF X:\für Bonn\!DataBase\2005_08_12_Daniel\c3d\Daniel.ASF
:FULLY-SPECIFIED
:DEGREES
84
root -1.2408 17.1842 1.31281 -273.43 -84.5352 255.703
lowerback 26.3919 -8.39268 2.24109
upperback 8.13781 -11.0262 0.540834
thorax -5.61259 -5.7121 2.72042
lowerneck 5.50401 5.87025 -4.37678
upperneck 11.3076 7.46313 -3.48954
head 2.64045 3.22197 -0.347655
rclavicle -6.33626e-015 -1.18277e-014
rhumerus -42.9747 19.3193 -87.8067
rradius 78.8444
rwrist 0.678366
rhand -27.866 36.4533
rfingers 7.12502
rthumb -1.25653 6.47725
lclavicle -6.33626e-015 -1.18277e-014
lhumerus 22.751 -4.81488 70.3616
lradius 125.633
lwrist 29.6897
lhand -25.782 -16.2399
lfingers 7.12502
lthumb 0.756266 13.7385
rfemur -18.3089 -4.02891 18.9614
rtibia 63.8003
rfoot 1.69747 -7.91975
rtoes -6.68978
lfemur 1.08029 -10.5811 -19.6903
ltibia 36.5895
lfoot -25.7354 1.20687
ltoes 5.2805
85
root -1.24223 17.1673 1.28762 -267.299 -84.8946 250.001
lowerback 25.7813 -7.83473 2.14499
upperback 7.91959 -10.3175 0.476542
thorax -5.57242 -5.3509 2.42079
lowerneck 5.94064 5.61991 -4.1472
upperneck 11.4605 7.10017 -3.48357
head 2.62414 3.04616 -0.395413
rclavicle 4.20305e-014 -3.17062e-014
rhumerus -41.7911 19.8441 -88.1374
rradius 79.706
rwrist -0.231812
rhand -27.9323 36.1937
rfingers 7.12502
rthumb -1.32053 6.21807
lclavicle 4.20305e-014 -3.17062e-014
lhumerus 21.014 -5.35381 69.6968
lradius 125.503
lwrist 29.6186
lhand -25.8334 -15.9668
lfingers 7.12502
lthumb 0.706654 14.0118
rfemur -16.5721 -3.06361 18.6375
rtibia 61.0328
rfoot 0.914039 -8.72446
rtoes -7.335
lfemur 0.592238 -10.7974 -20.2066
ltibia 36.8132
lfoot -26.2088 1.91237
ltoes 5.3055
86
root -1.23873 17.1533 1.26106 -259.761 -85.177 242.871
lowerback 25.2433 -7.24449 2.00399
upperback 7.73988 -9.57891 0.423532
thorax -5.51005 -4.97865 2.16294
lowerneck 6.17323 5.36392 -3.93607
upperneck 11.6709 6.74881 -3.44615
head 2.66015 2.87396 -0.42319
rclavicle -4.12975e-014 2.59414e-014
rhumerus -40.437 20.4666 -88.3886
rradius 80.5389
rwrist -1.33066
rhand -28.1118 35.915
rfingers 7.12502
rthumb -1.49393 5.94048
lclavicle -4.12975e-014 2.59414e-014
lhumerus 19.2921 -5.85762 69.0912
lradius 125.36
lwrist 29.6774
lhand -25.7221 -15.7142
lfingers 7.12502
lthumb 0.814182 14.264
rfemur -14.9036 -1.89044 18.3903
rtibia 58.3061
rfoot -0.318583 -9.57156
rtoes -8.16196
lfemur 0.128365 -10.9366 -20.6946
ltibia 36.9934
lfoot -26.5959 2.64172
ltoes 5.38762
87
root -1.23089 17.1398 1.23133 -250.813 -85.3343 234.304
lowerback 24.8108 -6.61923 1.83157
upperback 7.57067 -8.80027 0.364939
thorax -5.48071 -4.58745 1.92542
lowerneck 6.26105 5.08632 -3.67054
upperneck 11.9235 6.38818 -3.44609
head 2.73853 2.69707 -0.467642
rclavicle -7.9899e-014 2.23633e-015
rhumerus -39.0177 21.0989 -88.5643
rradius 81.3977
rwrist -2.52736
rhand -28.2815 35.6669
rfingers 7.12502
rthumb -1.65778 5.69361
lclavicle -7.9899e-014 2.23633e-015
lhumerus 17.5803 -6.35931 68.5891
lradius 125.157
lwrist 29.7456
lhand -25.394 -15.4839
lfingers 7.12502
lthumb 1.13106 14.4928
rfemur -13.3073 -0.695417 18.1964
rtibia 55.6318
rfoot -1.99371 -10.2285
rtoes -9.89934
lfemur -0.315828 -11.0942 -21.1613
ltibia 37.1658
lfoot -27.0257 3.39082
ltoes 5.52289
88
root -1.22204 17.1227 1.19925 -240.863 -85.3551 224.723
lowerback 24.4271 -5.9696 1.62373
upperback 7.41331 -7.9982 0.289705
thorax -5.45809 -4.18556 1.69496
lowerneck 6.15841 4.81677 -3.35939
upperneck 12.2759 6.05703 -3.44678
head 2.88551 2.53291 -0.515189
rclavicle -1.17407e-013 1.15295e-014
rhumerus -37.5435 21.7297 -88.7152
rradius 82.2574
rwrist -3.70941
rhand -28.5454 35.4413
rfingers 7.12502
rthumb -1.91268 5.47011
lclavicle -1.17407e-013 1.15295e-014
lhumerus 15.8269 -6.84906 68.0944
lradius 124.939
lwrist 29.9766
lhand -24.9102 -15.2877
lfingers 7.12502
lthumb 1.59827 14.686
rfemur -11.7407 0.461754 18.0023
rtibia 53.0145
rfoot -4.09565 -10.6902
rtoes -11.6424
lfemur -0.787356 -11.1573 -21.6044
ltibia 37.3879
lfoot -27.4291 4.11455
ltoes 5.59427
89
root -1.21122 17.1034 1.16519 -230.661 -85.2028 214.893
lowerback 24.0528 -5.2935 1.38069
upperback 7.28193 -7.17025 0.228969
thorax -5.40412 -3.77318 1.49845
lowerneck 5.89944 4.54401 -3.07014
upperneck 12.6821 5.73267 -3.45853
head 3.07877 2.36926 -0.560497
rclavicle 3.59738e-014 6.5102e-015
rhumerus -36.0325 22.3731 -88.7578
rradius 83.202
rwrist -4.87049
rhand -28.7784 35.2522
rfingers 7.12502
rthumb -2.13772 5.28317
lclavicle 3.59738e-014 6.5102e-015
lhumerus 14.0065 -7.38852 67.5536
lradius 124.687
lwrist 30.2677
lhand -24.3607 -15.2318
lfingers 7.12502
lthumb 2.12903 14.7373
rfemur -10.2263 1.59408 17.8405
rtibia 50.4627
rfoot -6.47112 -10.9796
rtoes -13.0842
lfemur -1.30999 -11.2632 -22.0445
ltibia 37.6909
lfoot -27.8759 4.87658
ltoes 5.69225
